<?xml version="1.0" encoding="UTF-8"?>
<svg version="1.1" xmlns="http://www.w3.org/2000/svg" width="512" height="512">
<path d="M0 0 C10.56 0 21.12 0 32 0 C32.33 84.48 32.66 168.96 33 256 C57.42 231.58 81.84 207.16 107 182 C113.38607922 178.80696039 118.14471177 177.45220413 125.05859375 179.65625 C128.81962887 181.53272343 131.46431013 184.10769437 133.33984375 187.875 C134.67513785 192.1732248 134.85221256 196.594813 134 201 C131.47346457 205.16242442 128.66908236 208.57907116 125.22906494 212.01144409 C124.76420583 212.47801206 124.29934671 212.94458002 123.82040095 213.42528641 C122.27591862 214.97303874 120.72444331 216.5135766 119.17285156 218.05419922 C118.05854542 219.16794071 116.94468049 220.28212379 115.83122253 221.39671326 C112.81742171 224.41108648 109.79750665 227.41926542 106.77643681 230.42635107 C103.61647603 233.57378573 100.46220072 236.72690781 97.30731201 239.87942505 C91.3367746 245.84375323 85.36115852 251.80296599 79.3836906 257.76034749 C72.57687144 264.54479035 65.77574929 271.334932 58.97509432 278.12555289 C44.9897158 292.09004201 30.99721592 306.04737671 17 320 C13.37359442 318.46672057 11.05325384 316.30467024 8.28048706 313.53445435 C7.82112263 313.07820989 7.3617582 312.62196544 6.88847363 312.1518954 C5.35298957 310.62437815 3.82474101 309.08982422 2.29638672 307.55517578 C1.19602171 306.45752122 0.09523176 305.3602925 -1.00595093 304.26345825 C-3.9939219 301.28460716 -6.9755291 298.29946144 -9.95577097 295.31288004 C-13.07485218 292.1887368 -16.19880847 289.06947456 -19.32199097 285.94943237 C-24.56608478 280.70897761 -29.80594653 275.46431895 -35.04345703 270.21728516 C-41.09955451 264.15030326 -47.16282338 258.09056002 -53.22986805 252.03452694 C-58.43786962 246.83559999 -63.64196509 241.6327872 -68.84281337 236.42670429 C-71.94942885 233.31697007 -75.05738142 230.20860458 -78.16885757 227.10373306 C-81.09377232 224.18459364 -84.01375487 221.2606088 -86.92999649 218.33280563 C-88.00137856 217.258778 -89.07446822 216.18645065 -90.14937592 215.11595154 C-91.61574189 213.65504642 -93.07581506 212.18812698 -94.53445435 210.71951294 C-95.76278583 209.49005038 -95.76278583 209.49005038 -97.01593208 208.2357502 C-101.34067278 203.36240902 -101.42866187 199.27188556 -101.3203125 192.91796875 C-100.77911343 187.9877772 -98.55327508 185.36499932 -94.9375 182.1875 C-91.62555267 180.1575968 -88.62453117 179.73992881 -84.8125 179.5625 C-83.91144531 179.50191406 -83.01039063 179.44132813 -82.08203125 179.37890625 C-45.62900497 186.72495337 -27.29436758 229.70563242 -1 256 C-0.67 171.52 -0.34 87.04 0 0 Z " fill="#000000" transform="translate(240,56)"/>
<path d="M0 0 C105.6 0 211.2 0 320 0 C320 10.56 320 21.12 320 32 C214.4 32 108.8 32 0 32 C0 21.44 0 10.88 0 0 Z " fill="#000000" transform="translate(96,424)"/>
</svg>
